<svg xmlns="http://www.w3.org/2000/svg" width="16" height="16" viewBox="0 0 16 16">
    <path fill="#1E1E1E" fill-rule="evenodd" d="M13.505 3.9L8.717 8.69c-.196.19-.89.494-1.385 0-.494-.494-.26-1.184-.07-1.38l4.861-4.827H9.5c-.276 0-.987-.22-.987-.982 0-.763.71-1.001.987-1.001h5c.5 0 .988.404.988 1.001v5c0 .276-.173.999-.988.999s-.995-.723-.995-.999V3.9zM5 2.5H2.499C1.241 2.5.501 3.327.501 4.496v9.009c0 1.223.764 1.985 2.001 1.985h8.995c.399 0 .927-.082 1.424-.58.498-.497.574-1.012.574-1.411v-2.498c0-.276-.223-.972-.996-.972s-1.002.696-1.002.972v2.504H2.502l-.003-9.009H5c.276 0 .995-.161.995-.996s-.719-1-.995-1z"/>
</svg>
