<svg xmlns="http://www.w3.org/2000/svg" width="16" height="16" viewBox="0 0 16 16">
    <path fill="#FFF" fill-rule="evenodd" d="M13.87 3.628L8.765 8.736c-.21.202-.95.527-1.477 0-.527-.527-.277-1.263-.075-1.472l5.185-5.15H9.6c-.294 0-1.053-.233-1.053-1.046C8.546.254 9.305 0 9.599 0h5.333c.534 0 1.055.431 1.055 1.068V6.4c0 .295-.185 1.065-1.055 1.065-.87 0-1.061-.77-1.061-1.065V3.628zM4.8 2.134H2.13C.79 2.134 0 3.016 0 4.264v9.61c0 1.304.815 2.116 2.135 2.116h9.594c.425.001.989-.087 1.52-.618.53-.53.612-1.08.611-1.505v-2.665c0-.294-.237-1.037-1.062-1.037-.825 0-1.069.743-1.069 1.037v2.671H2.135l-.004-9.61H4.8c.295 0 1.061-.171 1.061-1.062 0-.89-.766-1.067-1.06-1.067z"/>
</svg>
